<?xml version="1.0" standalone="no"?>
<!DOCTYPE svg PUBLIC "-//W3C//DTD SVG 20010904//EN"
 "http://www.w3.org/TR/2001/REC-SVG-20010904/DTD/svg10.dtd">
<svg version="1.0" xmlns="http://www.w3.org/2000/svg"
 width="171.000000pt" height="60.000000pt" viewBox="0 0 171.000000 60.000000"
 preserveAspectRatio="xMidYMid meet">

<g transform="translate(0.000000,60.000000) scale(0.100000,-0.100000)"
fill="#000000" stroke="none">
<path d="M650 305 c0 -70 4 -115 10 -115 6 0 10 28 10 64 0 67 11 83 50 71 21
-7 30 -34 30 -92 0 -24 5 -43 10 -43 6 0 10 28 10 63 0 74 -17 97 -68 97 -30
0 -32 2 -32 35 0 19 -4 35 -10 35 -6 0 -10 -45 -10 -115z"/>
<path d="M116 348 c-9 -78 -7 -158 3 -158 9 0 17 38 24 120 l3 35 29 -62 c17
-35 35 -63 41 -63 6 0 24 28 40 63 28 61 28 61 35 32 4 -16 7 -51 8 -77 1 -32
5 -48 14 -48 10 0 12 16 10 63 -6 107 -13 147 -27 147 -7 0 -28 -32 -46 -72
l-33 -72 -36 72 c-19 40 -41 72 -47 72 -6 0 -14 -23 -18 -52z"/>
<path d="M538 394 c-5 -4 -8 -47 -8 -94 0 -64 4 -91 14 -99 17 -14 68 -11 64
4 -1 6 -9 9 -16 7 -26 -6 -42 20 -42 69 0 48 1 49 30 49 17 0 30 5 30 10 0 6
-13 10 -29 10 -24 0 -30 5 -33 26 -2 14 -6 22 -10 18z"/>
<path d="M946 391 c-8 -12 -76 -189 -76 -196 0 -3 6 -5 13 -5 7 0 18 13 24 30
10 27 15 30 56 30 41 0 46 -3 56 -30 5 -16 17 -30 25 -30 12 0 14 5 7 23 -60
155 -74 187 -86 187 -8 0 -16 -4 -19 -9z m50 -118 c-2 -2 -20 -3 -39 -1 l-34
3 20 45 19 45 19 -44 c11 -24 18 -46 15 -48z"/>
<path d="M380 334 c0 -8 5 -12 11 -9 16 11 59 -4 59 -20 0 -10 -10 -15 -29
-15 -36 0 -61 -23 -61 -55 0 -31 30 -47 78 -43 l37 3 3 59 c2 44 -1 63 -14 77
-22 24 -84 26 -84 3z m70 -94 c0 -30 -11 -37 -44 -24 -16 6 -22 35 -9 47 3 4
17 7 30 7 19 0 23 -5 23 -30z"/>
<path d="M1103 343 c-16 -6 -19 -213 -3 -213 6 0 10 15 10 34 0 34 1 35 34 29
46 -7 76 22 76 76 0 31 -6 44 -26 60 -25 20 -63 26 -91 14z m68 -23 c16 0 29
-48 20 -74 -12 -29 -36 -39 -62 -26 -14 8 -19 21 -19 55 0 43 11 58 38 49 8
-2 18 -4 23 -4z"/>
<path d="M1273 343 c-9 -3 -13 -35 -13 -109 0 -86 3 -104 15 -104 10 0 15 10
15 33 0 31 2 33 29 29 40 -6 81 34 81 78 0 58 -68 97 -127 73z m75 -29 c39
-27 17 -116 -25 -100 -8 3 -19 6 -24 6 -10 0 -13 93 -2 103 10 11 27 8 51 -9z"/>
<path d="M1446 335 c-25 -26 -19 -43 24 -70 22 -14 40 -29 40 -34 0 -14 -37
-23 -61 -16 -15 5 -20 3 -17 -6 7 -21 72 -23 92 -3 25 24 16 46 -27 69 -45 24
-46 50 -2 50 40 1 39 19 -1 23 -19 2 -38 -3 -48 -13z"/>
</g>
</svg>
