<?xml version="1.0" standalone="no"?>
<!DOCTYPE svg PUBLIC "-//W3C//DTD SVG 20010904//EN"
 "http://www.w3.org/TR/2001/REC-SVG-20010904/DTD/svg10.dtd">
<svg version="1.0" xmlns="http://www.w3.org/2000/svg"
 width="90.000000pt" height="85.000000pt" viewBox="0 0 90.000000 85.000000"
 preserveAspectRatio="xMidYMid meet">
<metadata>
Created by potrace 1.16, written by Peter Selinger 2001-2019
</metadata>
<g transform="translate(0.000000,85.000000) scale(0.100000,-0.100000)"
fill="#000000" stroke="none">
<path d="M696 643 c-12 -85 -56 -243 -81 -297 l-25 -53 -52 2 c-47 2 -53 5
-64 31 -7 16 -30 65 -50 109 -26 56 -36 92 -35 122 2 53 -24 83 -72 83 -43 0
-77 -35 -77 -79 0 -18 -11 -51 -24 -74 -29 -51 -58 -143 -80 -257 -9 -47 -19
-95 -22 -108 -3 -17 0 -22 15 -22 15 0 20 10 25 50 11 79 53 237 79 294 l25
53 53 -2 c48 -2 54 -4 65 -31 7 -16 30 -65 50 -109 26 -56 36 -92 35 -122 -2
-53 24 -83 72 -83 42 0 77 35 77 77 0 16 15 63 34 104 29 63 70 211 90 327 5
27 2 32 -13 32 -15 0 -20 -10 -25 -47z"/>
</g>
</svg>
