<?xml version="1.0" standalone="no"?>
<!DOCTYPE svg PUBLIC "-//W3C//DTD SVG 20010904//EN"
 "http://www.w3.org/TR/2001/REC-SVG-20010904/DTD/svg10.dtd">
<svg version="1.0" xmlns="http://www.w3.org/2000/svg"
 width="87.000000pt" height="89.000000pt" viewBox="0 0 87.000000 89.000000"
 preserveAspectRatio="xMidYMid meet">
<metadata>
Created by potrace 1.16, written by Peter Selinger 2001-2019
</metadata>
<g transform="translate(0.000000,89.000000) scale(0.100000,-0.100000)"
fill="#000000" stroke="none">
<path d="M348 683 c-162 -263 -208 -341 -208 -349 0 -5 43 -31 96 -58 l95 -50
202 39 c111 21 205 41 208 44 7 6 -315 454 -330 459 -5 2 -33 -37 -63 -85z
m221 -173 c79 -110 126 -182 118 -185 -18 -6 -312 -64 -314 -61 -2 2 48 398
53 414 2 6 5 12 8 12 2 0 63 -81 135 -180z"/>
</g>
</svg>
