<?xml version="1.0" standalone="no"?>
<!DOCTYPE svg PUBLIC "-//W3C//DTD SVG 20010904//EN"
 "http://www.w3.org/TR/2001/REC-SVG-20010904/DTD/svg10.dtd">
<svg version="1.0" xmlns="http://www.w3.org/2000/svg"
 width="86.000000pt" height="77.000000pt" viewBox="0 0 86.000000 77.000000"
 preserveAspectRatio="xMidYMid meet">
<metadata>
Created by potrace 1.16, written by Peter Selinger 2001-2019
</metadata>
<g transform="translate(0.000000,77.000000) scale(0.100000,-0.100000)"
fill="#000000" stroke="none">
<path d="M352 647 c-12 -13 -22 -28 -22 -34 0 -6 -15 -20 -32 -32 -18 -11 -49
-36 -67 -55 -19 -20 -44 -36 -56 -36 -58 0 -90 -65 -56 -111 12 -16 21 -41 21
-58 0 -16 13 -54 30 -85 16 -31 29 -59 30 -61 0 -3 0 -12 0 -20 0 -22 41 -55
70 -55 14 0 35 7 46 15 10 8 39 15 64 15 25 0 62 5 83 11 26 7 48 7 67 1 22
-8 36 -6 62 6 28 15 34 24 39 62 3 25 18 65 32 90 15 25 27 52 27 61 0 9 11
28 25 43 44 47 29 106 -30 126 -19 6 -35 16 -35 21 0 16 -74 58 -123 69 -26 5
-56 19 -67 30 -28 28 -81 26 -108 -3z m209 -87 c44 -23 58 -45 40 -63 -26 -26
-1 -95 40 -109 10 -3 9 -15 -5 -51 -21 -56 -29 -62 -77 -58 -29 2 -41 -3 -58
-25 -11 -15 -21 -35 -21 -46 0 -22 -36 -38 -89 -38 -33 0 -40 4 -51 29 -14 34
-56 55 -93 46 -20 -5 -29 -2 -40 17 -27 41 -25 77 3 91 14 7 31 25 38 40 11
23 11 32 -1 56 -14 28 -13 31 12 54 57 53 68 56 107 36 41 -20 87 -11 105 22
13 24 40 24 90 -1z"/>
</g>
</svg>
