<?xml version="1.0" standalone="no"?>
<!DOCTYPE svg PUBLIC "-//W3C//DTD SVG 20010904//EN"
 "http://www.w3.org/TR/2001/REC-SVG-20010904/DTD/svg10.dtd">
<svg version="1.0" xmlns="http://www.w3.org/2000/svg"
 width="89.000000pt" height="90.000000pt" viewBox="0 0 89.000000 90.000000"
 preserveAspectRatio="xMidYMid meet">
<metadata>
Created by potrace 1.16, written by Peter Selinger 2001-2019
</metadata>
<g transform="translate(0.000000,90.000000) scale(0.100000,-0.100000)"
fill="#000000" stroke="none">
<path d="M433 676 l-53 -92 -55 -1 c-70 -2 -129 -33 -170 -91 -27 -40 -30 -51
-30 -121 0 -66 4 -83 25 -114 41 -61 92 -91 166 -95 51 -3 72 0 109 18 50 24
103 87 112 133 l6 27 93 0 c52 0 94 2 94 4 0 5 -231 409 -239 418 -3 4 -30
-35 -58 -86z m155 -130 c50 -90 92 -167 92 -170 0 -3 -29 -6 -65 -6 -64 0 -65
0 -65 27 0 57 -46 124 -118 173 l-22 15 36 63 c19 34 38 62 42 62 4 0 49 -74
100 -164z m-246 -18 c-47 -79 -102 -177 -102 -182 0 -3 62 -6 139 -6 l138 0
-4 -24 c-7 -37 -62 -97 -107 -117 -96 -43 -202 -2 -247 96 -36 77 -13 167 55
221 40 32 65 42 114 43 l34 1 -20 -32z"/>
</g>
</svg>
