<svg id="Camada_1" data-name="Camada 1" xmlns="http://www.w3.org/2000/svg" viewBox="0 0 36 24.43"><defs><style>.cls-1{fill:#4f4e4e;}.cls-2,.cls-3{fill:#d3d3d3;}.cls-3{opacity:0.8;}</style></defs><path class="cls-1" d="M11.75,0H34.61A1.39,1.39,0,0,1,36,1.39V20.64A1.39,1.39,0,0,1,34.61,22H11.75a0,0,0,0,1,0,0V0A0,0,0,0,1,11.75,0Z"/><path class="cls-2" d="M1.39,0H12.68a0,0,0,0,1,0,0V22a0,0,0,0,1,0,0H1.39A1.39,1.39,0,0,1,0,20.64V1.39A1.39,1.39,0,0,1,1.39,0Z"/><rect class="cls-1" x="2.13" y="7.22" width="7.59" height="0.65"/><rect class="cls-1" x="2.13" y="5.83" width="5.18" height="0.65"/><rect class="cls-1" x="2.13" y="8.61" width="5.92" height="0.65"/><rect class="cls-1" x="2.13" y="13.51" width="7.59" height="0.65"/><rect class="cls-1" x="2.13" y="12.12" width="2.22" height="0.65"/><rect class="cls-1" x="2.13" y="14.9" width="5" height="0.65"/><rect class="cls-2" x="14.53" y="1.94" width="19.71" height="16.66"/><circle class="cls-2" cx="21.7" cy="22.07" r="2.36"/><circle class="cls-2" cx="26.98" cy="22.07" r="2.36"/><rect class="cls-1" x="16.57" y="11.94" width="7.59" height="0.65"/><rect class="cls-1" x="16.57" y="13.23" width="11.75" height="1.3"/><rect class="cls-2" x="16.94" y="13.6" width="9.16" height="0.56" rx="0.28"/><polygon class="cls-1" points="26.75 23.52 26.34 23.11 27.29 22.16 26.34 21.21 26.75 20.8 28.11 22.16 26.75 23.52"/><polygon class="cls-1" points="21.9 23.52 22.31 23.11 21.36 22.16 22.31 21.21 21.9 20.8 20.54 22.16 21.9 23.52"/><path class="cls-2" d="M30.75,22.31a.14.14,0,0,0-.17,0l-.46.46-.29-.29a.12.12,0,0,0-.17,0,.12.12,0,0,0,0,.16L30,23a.12.12,0,0,0,.16,0h0l.53-.53A.14.14,0,0,0,30.75,22.31Z" transform="translate(-3 -8.78)"/><rect class="cls-1" x="16.57" y="15.18" width="9.9" height="0.65"/><rect class="cls-1" x="16.57" y="4.63" width="15.64" height="6.76"/><path class="cls-3" d="M24.58,15a1.15,1.15,0,1,1-1.13-1.16A1.16,1.16,0,0,1,24.58,15Z" transform="translate(-3 -8.78)"/><path class="cls-3" d="M19.71,20.17l.92-.74L22.35,18,24,16.72a1,1,0,0,1,.27-.18.7.7,0,0,1,.76.16c.37.45.74.89,1.12,1.33L27,19c.05.06.07.06.12,0L28.88,17c.56-.68,1.13-1.35,1.7-2a.92.92,0,0,1,1-.3.71.71,0,0,1,.47.27c.09.14.16.28.24.43l.46.83.5.92.51.92.51.92.52.94.15.28Z" transform="translate(-3 -8.78)"/></svg>